# xmcd
#
# Track frame offsets:
#	150
#	11917
#	26542
#	36932
#	48240
#	59357
#	70660
#	81247
#	91702
#	100617
#
# Disc length: 1545 seconds
# Revision: 0
# Processed by: cddbd v1.5.2PL0 Copyright (c) Steve Scherf et al.
# Submitted via: dBpowerAMP V12.0
#
DISCID=7306070a
DTITLE=Don Gibson - Greatest Hits, Vol. 1
DYEAR=1999
DGENRE=Country
TTITLE0=Oh, Lonesome Me
TTITLE1=I Can't Stop Loving You
TTITLE2=Lonesome Number One
TTITLE3=A Perfect Mountain
TTITLE4=Give Myself A Party
TTITLE5=Who Cares (For Me)
TTITLE6=Look Who's Blue
TTITLE7=Just One Time
TTITLE8=Blue Blue Day
TTITLE9=Sweet Dreams
EXTD=
EXTT0=
EXTT1=
EXTT2=
EXTT3=
EXTT4=
EXTT5=
EXTT6=
EXTT7=
EXTT8=
EXTT9=
PLAYORDER=
